<?xml version="1.0"?>
<svg xmlns="http://www.w3.org/2000/svg" xmlns:xlink="http://www.w3.org/1999/xlink" version="1.1" id="Capa_1" x="0px" y="0px" viewBox="0 0 405.315 405.315" style="enable-background:new 0 0 405.315 405.315;" xml:space="preserve" width="512px" height="512px"><g><g>
	<path d="M233.645,226.189c49.207,0,89.24-40.032,89.24-89.239c0-29.433-24.297-71.495-31.744-83.686   c-8.512-13.935-17.729-26.631-25.955-35.751C254.408,5.565,245.768,0,237.996,0c-5.223,0-9.869,2.551-12.746,6.998   c-6.652,10.279-16.697,21.89-27.332,34.182c-25.083,28.991-53.512,61.85-53.512,95.771   C144.406,186.157,184.438,226.189,233.645,226.189z M213.042,54.266c10.045-11.609,19.586-22.637,26.799-33.11   c6.214,4.154,19.959,18.653,35.701,44.964c16.866,28.189,27.343,55.331,27.343,70.831c0,38.179-31.061,69.239-69.24,69.239   s-69.24-31.061-69.24-69.239C164.406,110.48,190.245,80.615,213.042,54.266z" data-original="#000000" class="active-path" data-old_color="#000000" fill="#FFFFFF"/>
	<path d="M191.299,182.54c12.444,9.391,27.282,14.354,42.908,14.354c16.33,0,32.291-5.664,44.942-15.948   c4.285-3.484,4.935-9.782,1.451-14.067c-3.484-4.285-9.782-4.935-14.067-1.452c-9.229,7.502-20.407,11.468-32.326,11.468   c-11.243,0-21.915-3.568-30.861-10.319c-4.409-3.328-10.68-2.451-14.006,1.959C186.014,172.942,186.891,179.213,191.299,182.54z" data-original="#000000" class="active-path" data-old_color="#000000" fill="#FFFFFF"/>
	<path d="M392.805,301.988c-3.704-9.201-12.743-14.693-24.179-14.693c-3.727,0-7.666,0.584-11.705,1.736   c-12.148,3.464-24.343,9.194-37.253,15.262c-13.477,6.334-28.752,13.513-46.279,19.121c-4.419,1.414-10.59,2.162-17.846,2.162   c-12.771,0-28.836-2.359-42.977-6.311c-5.983-1.672-10.665-3.346-14.255-4.864c3.49-0.746,7.245-1.498,10.686-2.187   c10.462-2.094,22.32-4.467,34.303-7.665c18.407-4.911,24.759-17.624,24.566-27.884c-0.204-10.84-7.453-20.022-17.629-22.331   c-12.981-2.945-68.828-9.177-100.918-10.122c-0.295-0.008-0.6-0.013-0.907-0.013c-10.22,0-25.55,5.055-41.78,10.407   c-10.38,3.423-21.107,6.96-27.911,8.136c-2.405-0.048-9.382-1.147-15.555-2.119c-10.284-1.62-21.94-3.456-29.412-3.456   c-13.599,0-15.572,7.766-15.789,11.103c-0.801,12.283-1.958,30.41-3.159,49.232c-1.435,22.494-2.934,45.982-3.967,61.704   c-0.209,3.384,1.004,6.742,3.327,9.213c1.794,1.908,5.069,4.183,10.489,4.183c3.201,0,6.924-0.805,11.383-2.459   c7.633-2.834,41.97-8.797,56.314-8.797c2.149,0,2.904,0.146,2.913,0.147c13.553,3.078,126.096,23.821,159.016,23.821   c3.676,0,6.411-0.237,8.606-0.747c27.271-6.337,101.126-49.737,116.99-64.978C392.55,327.416,397.382,313.359,392.805,301.988z    M366.022,325.169c-13.529,12.998-84.564,54.552-107.659,59.918c-0.041,0.01-1.042,0.229-4.081,0.229   c-30.874,0-141.797-20.42-154.59-23.325c-1.936-0.439-4.268-0.644-7.339-0.644c-15.366,0-48.165,5.391-60.909,9.26   c0.962-14.835,2.163-33.656,3.323-51.83c0.967-15.166,1.906-29.881,2.654-41.447c6.235,0.469,15.182,1.878,22.634,3.051   c9.308,1.467,15.196,2.365,18.824,2.364c0.985,0,1.856-0.063,2.664-0.195c8.333-1.356,19.515-5.044,31.353-8.947   c12.701-4.188,28.508-9.401,35.516-9.401l0.316,0.005c30.502,0.897,85.082,6.911,97.083,9.634c1.317,0.299,2.032,1.838,2.058,3.203   c0.064,3.431-3.662,6.565-9.726,8.184c-11.373,3.035-22.901,5.343-33.072,7.378c-8.309,1.663-15.485,3.1-20.841,4.595   c-4.572,1.276-15.279,4.266-15.279,13.99c0,10.384,10.832,18.831,33.114,25.823c17.088,5.362,37.079,8.564,53.476,8.564   c9.431,0,17.486-1.048,23.942-3.113c18.763-6.004,34.663-13.477,48.69-20.068c12.685-5.962,23.64-11.11,34.231-14.131   c2.256-0.643,4.349-0.969,6.221-0.969c2.299,0,4.984,0.567,5.625,2.161C375.163,311.719,373.723,317.771,366.022,325.169z" data-original="#000000" class="active-path" data-old_color="#000000" fill="#FFFFFF"/>
</g></g> </svg>
