<?xml version="1.0" encoding="iso-8859-1"?>
<!-- Generator: Adobe Illustrator 19.0.0, SVG Export Plug-In . SVG Version: 6.00 Build 0)  -->
<svg xmlns="http://www.w3.org/2000/svg" xmlns:xlink="http://www.w3.org/1999/xlink" version="1.1" id="Layer_1" x="0px" y="0px" viewBox="0 0 512 512" style="enable-background:new 0 0 512 512;" xml:space="preserve" width="512" height="512">
<g>
	<g>
		<path style="fill:#59C2E8;" d="M190.891,65.825c-6.66-6.477-17.246-6.477-23.907,0C-71.287,297.547-7.184,504.5,178.938,504.5    S429.163,297.547,190.891,65.825z"/>
		<path style="fill:#0097D1;" d="M208.938,484.5c-181.997,0-247.316-197.883-27.343-423.309c-5.15-0.806-10.593,0.727-14.611,4.634    C-71.287,297.547-7.184,504.5,178.938,504.5c48.559,0,88.805-14.094,117.55-39.032C271.953,477.802,242.42,484.5,208.938,484.5z"/>
		<path style="fill:#D5EBF6;" d="M427.506,270.227V58.157c0-27.977-22.68-50.657-50.656-50.657h0    c-25.428,0-46.475,18.737-50.1,43.157l4.08,7.5l-4.637,7.5V86.67l3.97,7.5l-3.97,7.5v21.014l4.637,7.5l-4.637,7.5v21.014    l3.637,7.5l-3.637,7.5v21.013l3.637,7.5l-3.637,7.5v60.516c-42.433,19.279-71.942,62.03-71.942,111.674    c0,67.709,54.889,122.599,122.599,122.599s122.599-54.889,122.599-122.599C499.448,332.257,469.94,289.506,427.506,270.227z"/>
		<path style="fill:#FF6E80;" d="M376.849,469.849c-48.494,0-87.947-39.453-87.947-87.947c0-34.427,20.264-65.879,51.625-80.127    l20.318-9.23V58.156c0-8.825,7.18-16.005,16.005-16.005c8.825,0,16.006,7.18,16.006,16.005v234.388l20.318,9.231    c31.361,14.248,51.625,45.7,51.625,80.127C464.798,430.396,425.344,469.849,376.849,469.849z"/>
	</g>
	<g>
		<path d="M114.935,287.251v-12.938c0-4.142-3.358-7.5-7.5-7.5s-7.5,3.358-7.5,7.5v12.938c0,4.142,3.358,7.5,7.5,7.5    S114.935,291.394,114.935,287.251z"/>
		<path d="M257.909,287.251v-12.938c0-4.142-3.358-7.5-7.5-7.5s-7.5,3.358-7.5,7.5v12.938c0,4.142,3.358,7.5,7.5,7.5    S257.909,291.394,257.909,287.251z"/>
		<path d="M178.922,301.658c9.041,0,17.53-3.78,23.291-10.371c2.726-3.119,2.408-7.857-0.711-10.583    c-3.119-2.726-7.856-2.407-10.583,0.711c-2.912,3.331-7.284,5.242-11.997,5.242s-9.085-1.911-11.998-5.242    c-2.726-3.119-7.464-3.438-10.583-0.711c-3.119,2.726-3.437,7.464-0.711,10.582C161.392,297.877,169.881,301.658,178.922,301.658z    "/>
		<path d="M434.99,265.498V58.157C434.99,26.089,408.901,0,376.833,0c-32.067,0-58.156,26.089-58.156,58.157v162.904    c-26.538-53.299-67.63-107.18-122.573-160.613c-9.635-9.37-24.729-9.369-34.364,0c-24.271,23.604-46.204,47.752-65.188,71.774    c-2.568,3.25-2.016,7.966,1.234,10.535c3.25,2.568,7.966,2.016,10.535-1.234c18.582-23.512,40.073-47.171,63.878-70.321    c3.771-3.667,9.678-3.667,13.448,0c64.195,62.431,108.947,125.231,133.031,186.676v7.62    c-43.862,21.95-71.942,67.115-71.942,116.404c0,31.941,11.873,63.115,33.249,86.866C253.189,487.267,218.452,497,178.922,497    c-33.537,0-63.136-6.799-87.973-20.208c-24.097-13.01-42.495-31.578-54.682-55.188c-15.872-30.748-20.186-69.087-12.478-110.87    c8.533-46.25,30.926-95.125,66.558-145.269c2.399-3.376,1.607-8.059-1.77-10.458s-8.059-1.607-10.458,1.77    C41.213,208.714,17.971,259.598,9.038,308.012c-8.317,45.083-3.511,86.742,13.899,120.472C50.334,481.559,107.188,512,178.922,512    c43.754,0,82.291-11.237,111.93-32.551C313.795,499.694,343.902,512,376.833,512c71.737,0,130.099-58.362,130.099-130.099    C506.932,332.612,478.852,287.448,434.99,265.498z M353.328,158.698h-19.651v-21.014h19.651V158.698z M353.328,122.684h-19.651    V101.67h19.651V122.684z M333.677,173.698h19.651v21.013h-19.651V173.698z M353.328,86.67h-19.651V65.657h19.651V86.67z     M376.833,497c-63.466,0-115.099-51.633-115.099-115.099c0-19.709,5.075-38.672,14.22-55.332    c11.758-21.419,30.245-39.028,53.325-49.515c2.639-1.199,4.398-3.932,4.398-6.828v-60.516h19.651v78.003l-15.919,7.232    c-34.033,15.461-56.023,49.593-56.023,86.955c0,52.63,42.817,95.447,95.447,95.447c25.649,0,49.736-10.07,67.826-28.356    c2.913-2.945,2.887-7.694-0.058-10.607c-2.945-2.913-7.693-2.887-10.606,0.057c-15.25,15.416-35.551,23.906-57.162,23.906    c-44.359,0-80.447-36.088-80.447-80.447c0-31.493,18.538-60.265,47.227-73.299l20.317-9.229c2.678-1.217,4.398-3.887,4.398-6.829    V58.156c0-4.69,3.815-8.505,8.505-8.505c4.69,0,8.506,3.815,8.506,8.505v234.388c0,2.942,1.72,5.612,4.397,6.829l20.318,9.23    c28.689,13.034,47.227,41.806,47.227,73.299c0,11.684-2.464,22.96-7.324,33.517c-1.732,3.763-0.086,8.217,3.676,9.949    c3.763,1.733,8.218,0.086,9.949-3.676c5.772-12.539,8.699-25.926,8.699-39.79c0-37.362-21.99-71.494-56.022-86.955l-15.92-7.233    V58.156c0-12.961-10.544-23.505-23.506-23.505c-10.338,0-19.133,6.712-22.271,16.006h-20.219    C337.905,30.424,355.596,15,376.833,15c23.797,0,43.157,19.36,43.157,43.157v212.07c0,2.941,1.72,5.611,4.397,6.828    c41.031,18.643,67.544,59.797,67.544,104.846C491.932,445.367,440.299,497,376.833,497z"/>
	</g>
</g>















</svg>
